<?xml version="1.0" standalone="no"?>
<!DOCTYPE svg PUBLIC "-//W3C//DTD SVG 20010904//EN"
 "http://www.w3.org/TR/2001/REC-SVG-20010904/DTD/svg10.dtd">
<svg version="1.0" xmlns="http://www.w3.org/2000/svg"
 width="512.000000pt" height="512.000000pt" viewBox="0 0 512.000000 512.000000"
 preserveAspectRatio="xMidYMid meet">

<g transform="translate(0.000000,512.000000) scale(0.100000,-0.100000)"
fill="#000000" stroke="none">
<path d="M1160 5104 c-42 -18 -76 -49 -98 -89 -14 -25 -18 -73 -23 -265 l-5
-235 -141 -390 c-77 -215 -147 -418 -154 -450 -11 -47 -14 -182 -14 -611 0
-529 1 -553 19 -573 13 -14 31 -21 56 -21 72 0 68 -29 72 595 l3 560 61 175
c34 96 102 289 150 427 l89 253 781 0 c775 0 782 0 808 21 34 27 36 77 3 107
l-23 22 -777 0 -777 0 0 158 c0 110 4 162 12 170 9 9 325 12 1360 12 1322 0
1347 0 1358 -19 5 -11 10 -86 10 -170 l0 -151 -278 0 c-278 0 -279 0 -300 -23
-31 -33 -29 -80 4 -106 26 -20 39 -21 310 -21 192 0 284 -3 284 -10 0 -6 63
-189 141 -407 111 -313 142 -413 150 -477 5 -45 9 -446 9 -893 l0 -812 22 -21
c45 -42 111 -15 123 52 3 18 4 413 2 878 -3 745 -5 852 -20 905 -9 33 -78 231
-153 440 l-138 380 -5 235 c-7 251 -10 268 -63 317 -60 56 19 53 -1460 53
-1195 -1 -1367 -3 -1398 -16z"/>
<path d="M2460 3819 c-305 -32 -601 -169 -826 -382 -229 -216 -369 -474 -430
-792 -24 -122 -24 -366 0 -495 106 -584 567 -1047 1151 -1156 137 -26 373 -26
510 0 437 81 819 367 1017 760 108 214 152 404 152 646 -1 335 -96 612 -300
875 -194 251 -481 437 -788 510 -171 41 -318 51 -486 34z m402 -170 c251 -50
470 -169 653 -353 147 -149 251 -320 313 -516 43 -138 56 -227 56 -385 -1
-359 -138 -676 -398 -923 -181 -170 -384 -276 -636 -329 -117 -24 -363 -24
-480 0 -525 110 -915 503 -1017 1025 -20 107 -23 336 -4 442 31 174 111 369
214 519 66 97 211 243 307 310 292 205 646 280 992 210z"/>
<path d="M2197 3326 c-117 -43 -182 -147 -182 -291 0 -65 5 -90 26 -135 48
-102 129 -159 227 -160 99 0 180 57 227 161 68 152 7 348 -128 412 -51 25
-124 30 -170 13z m117 -157 c39 -31 57 -74 57 -134 0 -122 -95 -189 -164 -117
-67 70 -58 207 17 253 40 24 57 24 90 -2z"/>
<path d="M2890 3329 c-73 -22 -140 -88 -171 -169 -46 -122 -15 -276 74 -356
51 -47 94 -64 161 -64 228 0 340 326 176 514 -60 68 -159 99 -240 75z m101
-155 c34 -17 68 -82 69 -129 0 -81 -49 -155 -105 -155 -64 0 -105 58 -105 150
0 58 18 99 56 129 32 25 45 26 85 5z"/>
<path d="M1696 2835 c-62 -22 -108 -66 -146 -140 -32 -62 -35 -76 -35 -149 1
-95 25 -159 83 -220 49 -51 104 -76 172 -76 72 0 126 26 177 84 53 61 78 130
77 222 0 193 -168 336 -328 279z m128 -165 c66 -59 69 -178 6 -242 -100 -99
-223 91 -140 217 20 31 55 54 82 55 10 0 33 -14 52 -30z"/>
<path d="M3380 2835 c-66 -21 -115 -67 -151 -141 -59 -119 -41 -263 44 -360
51 -58 105 -84 177 -84 173 0 295 188 246 379 -41 160 -180 250 -316 206z
m105 -147 c33 -15 62 -63 71 -116 13 -81 -43 -172 -105 -172 -107 0 -145 190
-54 270 37 33 50 36 88 18z"/>
<path d="M2543 2610 c-64 -9 -173 -59 -222 -102 -20 -17 -59 -62 -88 -100 -33
-44 -81 -91 -130 -127 -82 -61 -116 -98 -153 -171 -50 -98 -63 -208 -35 -313
21 -83 50 -133 111 -197 62 -65 125 -103 209 -125 85 -22 155 -19 267 12 107
28 125 27 258 -11 70 -20 149 -20 225 -1 277 72 415 380 285 635 -37 73 -71
110 -153 171 -50 36 -95 81 -128 125 -54 74 -82 101 -143 141 -81 53 -201 77
-303 63z m174 -165 c58 -25 99 -61 158 -140 30 -41 76 -89 102 -107 26 -18 73
-58 104 -90 47 -45 61 -68 75 -114 52 -181 -71 -365 -257 -381 -43 -4 -75 0
-130 18 -101 31 -217 31 -318 0 -55 -18 -87 -22 -130 -18 -185 16 -310 200
-258 378 20 68 59 115 153 184 48 36 94 82 129 130 89 120 146 154 263 155 43
0 87 -6 109 -15z"/>
<path d="M744 2289 c-18 -20 -19 -53 -19 -1098 0 -1198 -5 -1111 67 -1163 l33
-23 1735 0 1735 0 33 23 c71 51 67 5 70 827 2 493 0 752 -7 776 -7 23 -20 40
-36 47 -36 17 -48 15 -79 -9 l-26 -20 -2 -527 -3 -527 -1053 -5 -1054 -5 -19
-24 c-10 -13 -19 -29 -19 -37 0 -26 23 -62 47 -73 17 -8 323 -11 1064 -11
l1040 0 -3 -142 -3 -143 -1685 0 -1685 0 -3 143 -3 142 254 0 c238 0 256 1
279 20 33 25 39 49 22 89 -7 17 -14 32 -16 33 -2 1 -122 5 -268 8 l-265 5 -3
839 c-2 764 -4 841 -19 858 -23 26 -84 24 -109 -3z"/>
</g>
</svg>
