<?xml version="1.0" standalone="no"?>
<!DOCTYPE svg PUBLIC "-//W3C//DTD SVG 20010904//EN"
 "http://www.w3.org/TR/2001/REC-SVG-20010904/DTD/svg10.dtd">
<svg version="1.0" xmlns="http://www.w3.org/2000/svg"
 width="512.000000pt" height="512.000000pt" viewBox="0 0 512.000000 512.000000"
 preserveAspectRatio="xMidYMid meet">

<g transform="translate(0.000000,512.000000) scale(0.100000,-0.100000)"
fill="#000000" stroke="none">
<path d="M2091 4689 c98 -113 160 -193 243 -317 l76 -112 37 33 c56 49 146
116 246 182 103 69 105 62 -38 131 -168 80 -361 133 -549 150 l-79 7 64 -74z"/>
<path d="M1665 4730 c-49 -10 -127 -30 -173 -45 l-82 -28 140 -141 c200 -202
342 -379 449 -563 l43 -72 31 37 c17 20 66 75 108 122 l77 85 -67 101 c-86
131 -235 315 -347 431 l-89 91 -90 -18z"/>
<path d="M1095 4496 c-44 -30 -98 -70 -120 -90 l-40 -35 25 -17 c197 -142 428
-395 577 -632 30 -48 58 -91 62 -95 4 -4 67 -5 139 -1 l130 7 18 32 17 33 -53
93 c-106 187 -238 364 -387 519 -108 113 -254 240 -274 240 -8 0 -50 -25 -94
-54z"/>
<path d="M2875 4347 c-239 -143 -484 -361 -668 -591 -48 -60 -87 -113 -87
-116 0 -4 51 -10 113 -14 61 -3 141 -11 176 -16 l64 -11 103 109 c162 171 364
330 552 434 39 22 72 42 72 45 0 9 -193 203 -210 213 -10 5 -47 -12 -115 -53z"/>
<path d="M737 4168 c-50 -59 -127 -167 -127 -178 0 -4 39 -39 88 -77 104 -84
204 -187 298 -310 67 -86 71 -89 99 -81 17 4 86 20 155 34 69 15 127 28 128
30 7 5 -126 189 -207 286 -44 53 -116 128 -158 168 -72 66 -215 180 -226 180
-3 0 -26 -24 -50 -52z"/>
<path d="M3233 3970 c-96 -52 -162 -95 -253 -164 -85 -64 -270 -233 -270 -246
0 -4 24 -14 53 -20 28 -7 104 -28 167 -46 l114 -33 46 43 c91 85 315 236 350
236 7 0 9 8 5 23 -12 38 -119 240 -130 244 -5 1 -42 -15 -82 -37z"/>
<path d="M495 3764 c-26 -62 -63 -186 -80 -269 -15 -74 -35 -246 -30 -253 2
-2 53 22 115 53 93 47 266 122 343 149 16 5 13 13 -29 66 -52 67 -250 262
-283 279 -18 10 -22 7 -36 -25z"/>
<path d="M3450 3518 c-30 -17 -85 -53 -123 -81 l-69 -50 146 -74 c81 -40 149
-73 151 -73 11 0 -30 289 -43 302 -4 4 -32 -7 -62 -24z"/>
<path d="M1725 3423 c-441 -37 -876 -163 -1215 -351 -100 -56 -105 -60 -108
-94 -3 -36 39 -244 55 -273 7 -13 14 -11 43 9 67 45 236 134 343 181 212 92
455 160 712 201 160 25 549 30 720 9 452 -54 807 -174 1161 -390 l42 -25 20
78 c23 87 42 184 42 218 0 19 -20 34 -102 80 -319 179 -735 306 -1140 349
-132 13 -455 18 -573 8z"/>
<path d="M1761 2909 c-318 -24 -638 -109 -916 -243 -124 -59 -295 -162 -295
-177 0 -25 131 -249 146 -249 3 0 55 30 115 66 254 154 536 245 889 290 162
20 483 15 650 -11 289 -45 588 -153 800 -289 36 -23 71 -45 77 -50 14 -8 79
86 132 192 l31 62 -69 45 c-431 279 -986 408 -1560 364z"/>
<path d="M1825 2404 c-363 -29 -702 -136 -948 -299 l-47 -32 62 -59 c79 -74
152 -134 165 -134 6 0 50 20 99 44 217 107 463 162 769 172 143 5 193 3 316
-15 228 -33 460 -103 586 -177 23 -13 47 -24 53 -24 16 0 124 87 183 148 l49
49 -64 41 c-220 138 -482 231 -758 267 -117 16 -374 26 -465 19z"/>
<path d="M1810 1884 c-190 -23 -484 -98 -524 -134 -12 -12 51 -42 174 -83 211
-72 421 -98 633 -79 175 15 412 78 539 143 l42 21 -56 24 c-79 33 -206 69
-318 89 -91 16 -409 29 -490 19z"/>
<path d="M2730 1548 c-148 -69 -354 -129 -534 -153 -78 -11 28 -13 709 -14
780 -1 801 -2 833 -21 93 -57 97 -197 5 -257 -25 -16 -66 -18 -498 -23 -460
-6 -471 -6 -527 -29 -117 -46 -216 -170 -233 -291 -8 -59 9 -149 40 -210 29
-57 110 -134 172 -163 l48 -22 959 -3 c1061 -3 992 -7 1021 61 17 41 9 79 -22
109 l-25 23 -943 5 c-938 5 -944 5 -972 26 -52 39 -75 83 -70 137 5 55 29 93
78 122 32 19 57 20 514 25 479 5 480 5 527 28 75 38 134 96 170 170 29 59 33
76 33 152 0 110 -32 186 -111 260 -104 99 -79 95 -629 97 l-480 2 -65 -31z"/>
</g>
</svg>
