<svg width="22" height="22" viewBox="0 0 22 22" fill="none" xmlns="http://www.w3.org/2000/svg">
<path d="M11 22C17.0751 22 22 17.0751 22 11C22 4.92487 17.0751 0 11 0C4.92487 0 0 4.92487 0 11C0 17.0751 4.92487 22 11 22Z" fill="#1A212F"/>
<path fill-rule="evenodd" clip-rule="evenodd" d="M10.5846 15.8246H11.448C11.448 15.8246 11.7088 15.796 11.8419 15.6525C11.9645 15.5207 11.9606 15.2732 11.9606 15.2732C11.9606 15.2732 11.9437 14.1148 12.4814 13.9442C13.0114 13.7761 13.692 15.0638 14.4134 15.5589C14.9589 15.9337 15.3734 15.8515 15.3734 15.8515L17.3023 15.8246C17.3023 15.8246 18.3114 15.7625 17.8329 14.9691C17.7937 14.9042 17.5543 14.3822 16.3988 13.3096C15.1893 12.1871 15.3513 12.3686 16.8082 10.4268C17.6955 9.24421 18.0502 8.52222 17.9394 8.21299C17.8337 7.91847 17.1811 7.99632 17.1811 7.99632L15.0093 8.00985C15.0093 8.00985 14.8483 7.98789 14.7289 8.05926C14.6122 8.12927 14.5371 8.29241 14.5371 8.29241C14.5371 8.29241 14.1934 9.20754 13.7349 9.9858C12.7679 11.628 12.3812 11.7147 12.2231 11.6127C11.8555 11.3751 11.9472 10.658 11.9472 10.1486C11.9472 8.55713 12.1886 7.89357 11.4772 7.7218C11.2411 7.66474 11.0674 7.62709 10.4637 7.62101C9.68872 7.61297 9.03282 7.62337 8.66143 7.80533C8.41436 7.92632 8.22377 8.19594 8.33985 8.21143C8.48338 8.23064 8.80849 8.29908 8.98085 8.53379C9.20341 8.83655 9.19557 9.51657 9.19557 9.51657C9.19557 9.51657 9.32342 11.39 8.89693 11.6227C8.60417 11.7823 8.20259 11.4564 7.3404 9.96659C6.89862 9.20342 6.56508 8.35986 6.56508 8.35986C6.56508 8.35986 6.50077 8.20221 6.38606 8.11789C6.24683 8.01573 6.05232 7.98318 6.05232 7.98318L3.98852 7.99671C3.98852 7.99671 3.6787 8.00534 3.56497 8.14005C3.46379 8.25986 3.55693 8.50771 3.55693 8.50771C3.55693 8.50771 5.17268 12.2878 7.00216 14.1928C8.67967 15.9393 10.5846 15.8246 10.5846 15.8246Z" fill="#FFFDFB"/>
</svg>
