<?xml version="1.0" standalone="no"?>
<!DOCTYPE svg PUBLIC "-//W3C//DTD SVG 20010904//EN"
 "http://www.w3.org/TR/2001/REC-SVG-20010904/DTD/svg10.dtd">
<svg version="1.0" xmlns="http://www.w3.org/2000/svg"
 width="512.000000pt" height="512.000000pt" viewBox="0 0 512.000000 512.000000"
 preserveAspectRatio="xMidYMid meet">

<g transform="translate(0.000000,512.000000) scale(0.100000,-0.100000)"
fill="#000000" stroke="none">
<path d="M3762 4565 c-85 -19 -194 -73 -288 -143 -96 -71 -139 -119 -155 -172
-30 -99 67 -196 176 -176 19 4 83 39 142 78 143 95 192 111 309 106 78 -3 101
-9 157 -36 120 -60 222 -199 267 -367 27 -101 37 -297 21 -418 -44 -327 -220
-605 -420 -661 -81 -23 -106 -14 -218 76 -105 85 -265 192 -376 252 -125 68
-242 116 -472 196 -444 153 -563 245 -749 578 -208 373 -439 520 -994 636
-150 32 -188 33 -202 7 -5 -11 -10 -24 -10 -29 0 -5 33 -54 74 -110 108 -146
104 -131 46 -199 -110 -127 -142 -239 -120 -426 13 -115 13 -115 -14 -199 -15
-47 -24 -92 -20 -102 9 -23 149 -93 225 -112 67 -17 109 -13 203 18 46 15 65
17 83 9 27 -12 29 -34 8 -111 -43 -158 -23 -351 54 -515 23 -48 41 -94 41
-101 0 -13 -82 -41 -350 -119 -336 -98 -405 -130 -441 -208 -64 -142 42 -274
204 -252 27 4 79 23 115 42 170 90 496 152 825 156 150 2 153 2 222 -29 381
-170 735 -295 735 -258 0 3 -7 29 -15 57 -17 58 -36 224 -28 244 3 7 16 13 29
13 29 0 48 -38 94 -183 41 -133 88 -232 164 -346 82 -122 165 -213 319 -347
278 -242 250 -212 244 -260 -9 -87 -131 -240 -285 -357 -69 -52 -87 -84 -78
-137 13 -79 74 -120 180 -120 93 0 142 25 236 120 146 147 333 398 365 491 24
66 18 96 -39 218 -98 208 -97 289 3 501 76 159 94 231 96 385 1 66 5 130 9
143 4 12 49 55 99 96 266 213 400 412 477 711 96 376 49 768 -123 1028 -101
151 -236 259 -392 313 -71 24 -97 28 -225 31 -99 2 -165 -2 -208 -12z"/>
<path d="M489 3064 c-116 -35 -163 -166 -96 -265 44 -66 72 -74 262 -74 149
-1 193 -5 354 -35 l184 -34 69 24 c107 36 106 35 80 114 -12 37 -27 102 -34
144 -6 42 -16 80 -22 84 -6 4 -56 8 -111 8 -55 0 -197 11 -315 25 -244 28
-306 30 -371 9z"/>
<path d="M2754 1797 c11 -83 49 -219 101 -357 25 -67 45 -131 45 -143 0 -70
-193 -222 -411 -325 -112 -52 -125 -63 -144 -118 -51 -150 149 -238 329 -143
157 82 475 301 579 398 77 72 104 140 76 194 -7 12 -73 85 -148 162 -80 83
-161 177 -196 230 -66 99 -118 139 -194 151 l-44 7 7 -56z"/>
</g>
</svg>
