<svg width="40" height="40" viewBox="0 0 40 40" fill="none" xmlns="http://www.w3.org/2000/svg">
<circle cx="20" cy="20" r="20" fill="#FFFDFB"/>
<path d="M40 20C40 8.95599 31.044 0 20 0C8.95599 0 0 8.95599 0 20C0 31.044 8.95599 40 20 40C20.1952 40 20.3516 39.839 20.3516 39.6438V26.5747C20.3516 25.3882 19.3897 24.4263 18.2031 24.4263C17.0166 24.4263 16.0547 23.4644 16.0547 22.2778V21.5671C16.0547 20.3805 17.0166 19.4186 18.2031 19.4186C19.3897 19.4186 20.3516 18.4568 20.3516 17.2702V15.7336C20.3516 11.46 22.9605 9.13391 26.7728 9.13391C27.4066 9.13391 28.0096 9.15032 28.5458 9.17428C29.7384 9.22758 30.625 10.2226 30.625 11.4164C30.625 12.7314 29.559 13.7973 28.2441 13.7973H27.9962C25.9222 13.7973 25.5206 14.783 25.5206 16.2292V17.0985C25.5206 18.3799 26.5594 19.4186 27.8408 19.4186C29.2401 19.4186 30.3211 20.648 30.1419 22.0358L30.0917 22.4251C29.944 23.5695 28.9695 24.4263 27.8156 24.4263C26.5481 24.4263 25.5206 25.4538 25.5206 26.7212V30.7869C25.5206 35.0152 29.68 38.0061 32.9083 35.2754C37.2456 31.6067 40 26.1246 40 20Z" fill="#1A212F"/>
</svg>
