<svg width="248" height="291" viewBox="0 0 248 291" fill="none" xmlns="http://www.w3.org/2000/svg">
<path d="M45.1771 174.435C95.4102 167.193 134.82 229.818 97.1738 259.231C80.9371 271.917 57.3642 270.709 38.9351 260.017C-3.62663 235.324 2.04449 180.648 45.1771 174.435Z" fill="#FAC663" fill-opacity="0.15"/>
<path d="M86.4346 153.769C44.7927 186.303 -22.834 125.445 7.65968 82.9295C21.5539 63.5608 51.9602 60.2321 76.6594 78.2761C104.351 98.4948 109.845 135.479 86.4346 153.769Z" fill="#FAC663" fill-opacity="0.15"/>
<path d="M195.327 271.07C199.863 264.956 209.324 255.909 219.951 247.367C231.177 238.329 243.702 229.852 253.056 225.968C278.348 215.514 295.696 179.445 266.807 155.256C240.098 132.895 220.677 150.531 195.927 128.901C170.928 107.029 142.146 109.534 124.348 125.001C107.878 139.318 100.825 164.741 114.935 192.188C129.977 221.431 108.198 235.961 123.434 267.271C139.912 301.195 179.107 292.965 195.327 271.07Z" fill="#FAC663" fill-opacity="0.15"/>
<path d="M159.725 96.5123C147.946 105.715 132.494 106.788 118.706 100.727C77.7097 82.6987 71.5352 18.2249 110.068 2.96065C158.791 -16.3627 201.344 63.9959 159.725 96.5123Z" fill="#FAC663" fill-opacity="0.15"/>
<path d="M215.721 129.388C176.832 107.172 177.354 42.5128 217.431 31.4177C265.704 18.0511 300.572 95.8259 260.482 127.147C247.616 137.199 230.504 137.834 215.721 129.388Z" fill="#FAC663" fill-opacity="0.15"/>
</svg>
