<?xml version="1.0" standalone="no"?>
<!DOCTYPE svg PUBLIC "-//W3C//DTD SVG 20010904//EN"
 "http://www.w3.org/TR/2001/REC-SVG-20010904/DTD/svg10.dtd">
<svg version="1.0" xmlns="http://www.w3.org/2000/svg"
 width="512.000000pt" height="512.000000pt" viewBox="0 0 512.000000 512.000000"
 preserveAspectRatio="xMidYMid meet">

<g transform="translate(0.000000,512.000000) scale(0.100000,-0.100000)"
fill="#000000" stroke="none">
<path d="M1081 4909 c-94 -16 -233 -68 -316 -117 -105 -62 -257 -211 -314
-309 -55 -94 -95 -197 -116 -302 -22 -107 -17 -305 10 -399 l18 -63 -35 -37
c-140 -147 -250 -358 -301 -576 -17 -75 -21 -121 -21 -266 1 -162 3 -184 31
-290 44 -166 73 -227 118 -246 67 -28 135 13 135 82 0 18 -15 79 -34 136 -64
190 -71 387 -22 579 45 178 124 317 266 472 51 55 80 96 80 110 0 12 -12 58
-26 102 -20 60 -28 108 -32 192 -6 142 13 231 76 356 81 163 239 296 416 352
195 62 412 36 590 -72 65 -40 200 -169 211 -202 4 -12 -6 -43 -26 -83 -18 -35
-43 -94 -56 -133 -48 -141 -53 -206 -53 -669 l0 -431 -175 -175 -175 -175 0
439 0 438 -34 34 c-37 37 -70 43 -115 20 -47 -25 -51 -47 -51 -319 l0 -252
-102 102 c-114 113 -143 130 -194 113 -44 -15 -64 -45 -64 -95 0 -39 6 -46
180 -220 l180 -180 0 -501 0 -501 -57 9 c-32 4 -100 20 -151 34 -101 29 -136
25 -167 -20 -22 -30 -19 -89 6 -119 23 -31 131 -68 249 -87 41 -6 85 -14 98
-16 l22 -4 0 -300 c0 -165 -3 -300 -7 -300 -5 0 -37 9 -71 20 -78 24 -221 27
-302 5 -195 -52 -355 -214 -405 -410 -40 -158 5 -392 82 -424 21 -8 558 -11
2131 -9 l2104 3 24 28 c33 38 33 96 0 134 l-24 28 -251 3 -251 3 0 469 0 470
33 0 c46 0 187 37 270 71 128 52 225 118 337 229 153 151 242 306 293 510 31
126 30 360 -2 485 -44 169 -134 344 -232 450 l-42 46 18 95 c83 439 -205 853
-646 930 -130 22 -261 11 -407 -37 -8 -3 -21 22 -37 69 -89 261 -265 472 -505
605 -89 49 -257 103 -365 118 -314 41 -648 -71 -878 -295 l-48 -46 -55 60
c-112 121 -277 219 -439 261 -92 24 -289 33 -374 18z m1892 -223 c201 -60 372
-185 482 -354 58 -90 88 -158 117 -264 l23 -83 0 -815 0 -815 -23 -80 c-96
-341 -354 -577 -699 -639 l-33 -6 0 177 0 177 185 186 185 186 0 46 c0 39 -5
50 -31 72 -20 17 -42 26 -66 26 -33 0 -48 -11 -154 -117 l-118 -116 -3 362 -3
363 -33 29 c-44 40 -93 40 -133 0 l-29 -29 0 -208 0 -207 -85 82 c-78 74 -88
81 -126 81 -54 0 -99 -42 -99 -93 0 -46 31 -85 184 -237 l126 -125 0 -328 0
-328 -37 6 c-273 45 -517 228 -638 478 -84 175 -79 111 -82 1021 -4 889 -4
886 56 1042 102 264 358 476 639 529 114 22 284 13 395 -19z m1202 -731 c207
-43 386 -203 448 -400 31 -98 30 -273 -1 -360 -36 -98 -32 -115 46 -198 114
-121 174 -223 217 -374 131 -451 -133 -925 -589 -1057 -49 -15 -99 -26 -112
-26 l-24 0 0 172 0 172 179 181 c99 99 185 193 191 210 21 56 -15 119 -76 131
-46 8 -66 -5 -186 -124 l-108 -107 0 358 0 357 -28 31 c-24 26 -36 32 -72 32
-36 0 -48 -6 -72 -32 l-28 -31 0 -207 0 -208 -80 80 -80 80 0 636 0 637 43 17
c108 44 219 54 332 30z m-2492 -1402 c4 -229 6 -255 30 -340 15 -51 40 -121
56 -157 l30 -66 -57 -33 c-111 -65 -237 -107 -384 -130 l-28 -4 0 321 0 321
167 167 c92 93 171 168 174 168 4 0 9 -111 12 -247z m2277 -685 l0 -328 -24 0
c-46 0 -202 52 -276 91 -81 44 -159 99 -160 113 0 4 20 31 45 58 103 115 187
285 227 461 l22 97 83 -82 83 -83 0 -327z m-1992 -110 c150 -163 403 -294 625
-323 l47 -6 0 -196 c0 -182 -1 -195 -17 -188 -35 15 -214 18 -271 5 -55 -12
-57 -12 -71 11 -8 13 -49 58 -91 100 -59 60 -94 85 -160 117 -109 51 -173 66
-290 64 -137 -1 -253 -40 -362 -119 l-48 -35 0 216 c0 216 0 216 23 220 12 3
56 10 97 16 106 16 240 63 355 125 55 29 101 54 103 54 2 1 29 -27 60 -61z
m1427 -192 c70 -58 172 -118 262 -155 84 -34 223 -71 270 -71 l33 0 0 -470 0
-470 -462 0 -463 0 0 103 c-1 149 -40 253 -140 372 l-55 64 0 245 0 244 68 12
c132 22 260 69 367 133 33 20 61 36 63 37 1 0 27 -20 57 -44z m-1495 -449
c106 -39 186 -111 239 -216 50 -98 86 -110 200 -65 57 23 76 26 151 22 104 -5
159 -28 231 -95 87 -80 131 -205 115 -318 l-7 -45 -1144 0 -1145 0 -6 26 c-4
14 -4 58 -2 98 12 190 152 326 345 334 104 5 163 -14 248 -79 102 -78 168 -66
200 34 46 139 125 234 238 287 110 52 226 58 337 17z"/>
<path d="M410 2112 c-90 -45 -59 -182 42 -182 111 0 136 151 31 191 -32 12
-32 12 -73 -9z"/>
</g>
</svg>
